{
	"asset":{
		"generator":"Khronos glTF Blender I/O v3.5.30",
		"version":"2.0"
	},
	"scene":0,
	"scenes":[
		{
			"name":"Scene",
			"nodes":[
				0
			]
		}
	],
	"nodes":[
		{
			"mesh":0,
			"name":"Cylinder.001",
			"scale":[
				2.5700321197509766,
				2.5700321197509766,
				2.5700321197509766
			],
			"translation":[
				0,
				-2.481306314468384,
				0
			]
		}
	],
	"materials":[
		{
			"doubleSided":true,
			"name":"plate",
			"normalTexture":{
				"index":0
			},
			"pbrMetallicRoughness":{
				"baseColorTexture":{
					"index":1
				},
				"metallicFactor":0,
				"roughnessFactor":0.0929824709892273
			}
		}
	],
	"meshes":[
		{
			"name":"Cylinder.001",
			"primitives":[
				{
					"attributes":{
						"POSITION":0,
						"TEXCOORD_0":1,
						"NORMAL":2
					},
					"indices":3,
					"material":0
				}
			]
		}
	],
	"textures":[
		{
			"sampler":0,
			"source":0
		},
		{
			"sampler":0,
			"source":1
		}
	],
	"images":[
		{
			"mimeType":"image/jpeg",
			"name":"DiamondPlate001_4K_NormalGL",
			"uri":"Textures/DiamondPlate001_4K_NormalGL.jpg"
		},
		{
			"mimeType":"image/jpeg",
			"name":"DiamondPlate001_4K_Color",
			"uri":"Textures/DiamondPlate001_4K_Color.jpg"
		}
	],
	"accessors":[
		{
			"bufferView":0,
			"componentType":5126,
			"count":896,
			"max":[
				1,
				1,
				1
			],
			"min":[
				-1,
				0.7564231157302856,
				-1
			],
			"type":"VEC3"
		},
		{
			"bufferView":1,
			"componentType":5126,
			"count":896,
			"type":"VEC2"
		},
		{
			"bufferView":2,
			"componentType":5126,
			"count":896,
			"type":"VEC3"
		},
		{
			"bufferView":3,
			"componentType":5123,
			"count":4596,
			"type":"SCALAR"
		}
	],
	"bufferViews":[
		{
			"buffer":0,
			"byteLength":10752,
			"byteOffset":0,
			"target":34962
		},
		{
			"buffer":0,
			"byteLength":7168,
			"byteOffset":10752,
			"target":34962
		},
		{
			"buffer":0,
			"byteLength":10752,
			"byteOffset":17920,
			"target":34962
		},
		{
			"buffer":0,
			"byteLength":9192,
			"byteOffset":28672,
			"target":34963
		}
	],
	"samplers":[
		{
			"magFilter":9729,
			"minFilter":9987
		}
	],
	"buffers":[
		{
			"byteLength":37864,
			"uri":"platform.bin"
		}
	]
}
