{
	"asset":{
		"generator":"Khronos glTF Blender I/O v3.5.30",
		"version":"2.0"
	},
	"scene":0,
	"scenes":[
		{
			"name":"Scene",
			"nodes":[
				0
			]
		}
	],
	"nodes":[
		{
			"mesh":0,
			"name":"Cube.018",
			"translation":[
				-1.896731972694397,
				1.3155900239944458,
				8.365362167358398
			]
		}
	],
	"materials":[
		{
			"doubleSided":true,
			"name":"Material",
			"pbrMetallicRoughness":{
				"baseColorFactor":[
					0.4959123134613037,
					0.4959123134613037,
					0.4959123134613037,
					1
				],
				"roughnessFactor":0.17368420958518982
			}
		}
	],
	"meshes":[
		{
			"name":"Cube.018",
			"primitives":[
				{
					"attributes":{
						"POSITION":0,
						"TEXCOORD_0":1,
						"NORMAL":2
					},
					"indices":3,
					"material":0
				}
			]
		}
	],
	"accessors":[
		{
			"bufferView":0,
			"componentType":5126,
			"count":195,
			"max":[
				1,
				1.421558141708374,
				0.08773279935121536
			],
			"min":[
				-1,
				-1.421558141708374,
				-0.08773279935121536
			],
			"type":"VEC3"
		},
		{
			"bufferView":1,
			"componentType":5126,
			"count":195,
			"type":"VEC2"
		},
		{
			"bufferView":2,
			"componentType":5126,
			"count":195,
			"type":"VEC3"
		},
		{
			"bufferView":3,
			"componentType":5123,
			"count":900,
			"type":"SCALAR"
		}
	],
	"bufferViews":[
		{
			"buffer":0,
			"byteLength":2340,
			"byteOffset":0,
			"target":34962
		},
		{
			"buffer":0,
			"byteLength":1560,
			"byteOffset":2340,
			"target":34962
		},
		{
			"buffer":0,
			"byteLength":2340,
			"byteOffset":3900,
			"target":34962
		},
		{
			"buffer":0,
			"byteLength":1800,
			"byteOffset":6240,
			"target":34963
		}
	],
	"buffers":[
		{
			"byteLength":8040,
			"uri":"door2.bin"
		}
	]
}
