# Blender 3.4.1
# www.blender.org
o Cube
v -0.078482 -0.416084 0.468712
v -0.078482 -0.209269 0.468712
v -0.078482 -0.416084 0.261897
v -0.078482 -0.209269 0.261897
v 0.128333 -0.416084 0.468712
v 0.128333 -0.209269 0.468712
v 0.128333 -0.416084 0.261897
v 0.128333 -0.209269 0.261897
v -0.078482 -0.209269 -0.275644
v -0.078482 -0.416084 -0.275644
v 0.128333 -0.416084 -0.275644
v 0.128333 -0.209269 -0.275644
v -0.098846 0.023342 0.402684
v 0.148697 0.183571 0.242454
v -0.098846 0.023342 -0.416430
v 0.148697 0.183571 -0.256201
v -0.153786 0.023342 0.457623
v 0.203637 0.023342 0.457623
v -0.153786 0.023342 -0.471370
v 0.203637 0.023342 -0.471370
v -0.098846 0.550175 0.402684
v 0.148697 0.389945 0.242454
v -0.098846 0.550175 -0.416430
v 0.148697 0.389945 -0.256201
v 0.148697 0.023342 0.402684
v 0.148697 0.023342 -0.416430
v 0.148697 0.550175 0.402684
v 0.148697 0.550175 -0.416430
v 0.917127 0.251965 0.174060
v 0.848733 0.183571 0.242454
v 0.848733 0.183571 -0.256201
v 0.917127 0.251965 -0.187807
v 0.848733 0.389945 0.242454
v 0.917127 0.321551 0.174060
v 0.917127 0.321551 -0.187807
v 0.848733 0.389945 -0.256201
v 1.389077 0.251965 -0.187807
v 1.389077 0.251965 0.174060
v 1.389077 0.321551 0.174060
v 1.389077 0.321551 -0.187807
vn -1.0000 -0.0000 -0.0000
vn -0.0000 -0.6438 0.7652
vn 1.0000 -0.0000 -0.0000
vn -0.0000 -0.0000 1.0000
vn -0.0000 -1.0000 -0.0000
vn -0.0000 1.0000 -0.0000
vn -0.0000 -0.0000 -1.0000
vn 0.9514 -0.3080 -0.0000
vn -0.0000 -0.6438 -0.7652
vn -0.9514 -0.3080 -0.0000
vn 0.7071 -0.7071 -0.0000
vn 0.7071 0.7071 -0.0000
vn 0.7071 -0.0000 -0.7071
vn 0.7071 -0.0000 0.7071
vt -0.168724 -2.008433
vt -1.273266 1.969521
vt -0.811753 2.465492
vt 0.047829 -2.008433
vt -1.273266 2.443090
vt -0.170304 2.443090
vt -0.168724 -1.309178
vt -0.811753 1.991923
vt -0.491029 1.714912
vt -0.170304 1.969521
vt 0.047829 -1.309178
vt -0.952542 1.969521
vt 0.297539 1.170052
vt -0.491029 2.465492
vt 0.514586 1.170052
vt -0.952542 2.443090
vt -0.491029 2.443090
vt -0.491029 1.991923
vt 0.297539 0.470795
vt -0.491029 1.969521
vt -0.491029 1.015657
vt 0.514586 0.470795
vt 0.047829 0.508286
vt -1.056056 1.015657
vt -1.273266 1.015657
vt -0.168724 0.508286
vt -0.811753 0.761049
vt -1.273266 1.714912
vt 0.297539 -1.346667
vt -0.491029 0.761049
vt -1.056056 1.714912
vt 0.514586 -1.346667
vt -0.168724 1.170050
vt 1.754572 2.359869
vt -0.168726 0.761051
vt 1.285486 -2.008433
vt -0.888523 -1.466684
vt 1.839771 2.956550
vt -0.168726 -2.008433
vt 1.754572 0.484239
vt 0.599047 1.170050
vt 2.273266 2.956550
vt -0.888523 0.219301
vt 1.809206 -2.008433
vt -0.246726 1.969521
vt 0.297539 -1.970942
vt 1.839771 2.485670
vt -0.246726 0.761049
vt 0.761767 1.132561
vt 1.285487 2.485670
vt -0.811753 0.761049
vt 0.297539 1.170050
vt 1.839771 0.358438
vt 0.761767 -2.008433
vt -0.811753 1.969521
vt 1.285487 0.358438
vt 1.145653 2.465310
vt -0.168724 2.376407
vt -0.720367 0.761051
vt 2.056518 2.956550
vt -1.105108 -1.466685
vt 0.761767 0.589679
vt 1.145653 0.589682
vt -0.720367 -2.008433
vt 0.599047 2.376407
vt 1.285486 0.589679
vt 2.056518 2.956550
vt -1.105108 0.219301
vt 1.370686 2.359869
vt 0.215161 1.170050
vt -0.720367 -2.008433
vt 0.215161 1.170050
vt 1.370686 0.484239
vt -0.720367 0.761049
vt 0.761767 2.465310
vt 0.215161 2.376407
vt -1.273266 -2.008433
vt 0.761767 0.589682
vt 0.215161 2.376407
vt -1.273266 0.761049
vt 1.883764 -0.553691
vt 1.911603 0.358438
vt 1.809205 -0.322445
vt 1.839771 0.589684
vt 1.285486 0.358436
vt 2.273266 0.589684
vt 1.809205 -2.008433
vt 1.809206 0.358436
vt 2.201434 0.358438
vt 1.883764 -1.777187
vt 2.056518 0.589684
vt 0.761767 -1.777187
vt 1.984687 0.358438
vt 0.833599 -2.008433
vt 1.213654 -2.008433
vt 2.128350 0.358438
vt 1.285486 -1.777187
vt 2.056518 0.589684
vt 2.201434 0.358438
vt 1.883764 -1.777187
vt 1.911603 0.358438
vt 1.883764 -0.553691
vt 1.956793 -0.553691
vt 1.984687 0.358438
vt 0.833599 -2.008433
vt 1.956793 -1.777187
vt 2.128350 0.358438
vt 1.213654 -2.008433
s 0
f 2/4/1 3/7/1 1/1/1
f 8/21/2 17/45/2 4/9/2
f 8/22/3 5/13/3 7/19/3
f 6/16/4 1/2/4 5/12/4
f 7/18/5 1/3/5 3/8/5
f 4/10/6 6/17/6 8/20/6
f 9/24/7 11/28/7 10/25/7
f 4/11/1 10/26/1 3/7/1
f 7/19/3 12/32/3 8/22/3
f 3/8/5 11/30/5 7/18/5
f 24/67/7 31/86/7 16/42/7
f 12/32/8 18/49/8 8/22/8
f 9/24/9 20/55/9 12/31/9
f 4/11/10 19/52/10 9/23/10
f 13/34/6 18/50/6 25/69/6
f 26/73/6 19/53/6 15/40/6
f 25/69/6 20/56/6 26/73/6
f 15/40/6 17/47/6 13/34/6
f 27/75/6 23/63/6 21/57/6
f 25/70/4 21/58/4 13/33/4
f 13/35/1 23/64/1 15/39/1
f 15/41/7 28/79/7 26/72/7
f 16/43/3 25/71/3 26/74/3
f 22/61/3 28/80/3 27/77/3
f 16/43/3 28/80/3 24/68/3
f 22/61/3 25/71/3 14/37/3
f 14/38/4 33/91/4 22/60/4
f 22/62/6 36/97/6 24/66/6
f 29/82/4 39/104/4 34/93/4
f 31/87/11 29/81/11 30/83/11
f 35/95/12 33/92/12 34/94/12
f 36/98/13 32/89/13 31/86/13
f 30/84/14 34/93/14 33/91/14
f 16/44/5 30/85/5 14/36/5
f 38/102/3 40/106/3 39/103/3
f 35/96/7 37/99/7 32/89/7
f 34/94/6 40/108/6 35/95/6
f 32/90/5 38/102/5 29/81/5
f 2/4/1 4/11/1 3/7/1
f 8/21/2 18/48/2 17/45/2
f 8/22/3 6/15/3 5/13/3
f 6/16/4 2/5/4 1/2/4
f 7/18/5 5/14/5 1/3/5
f 4/10/6 2/6/6 6/17/6
f 9/24/7 12/31/7 11/28/7
f 4/11/1 9/23/1 10/26/1
f 7/19/3 11/29/3 12/32/3
f 3/8/5 10/27/5 11/30/5
f 24/67/7 36/98/7 31/86/7
f 12/32/8 20/54/8 18/49/8
f 9/24/9 19/51/9 20/55/9
f 4/11/10 17/46/10 19/52/10
f 13/34/6 17/47/6 18/50/6
f 26/73/6 20/56/6 19/53/6
f 25/69/6 18/50/6 20/56/6
f 15/40/6 19/53/6 17/47/6
f 27/75/6 28/78/6 23/63/6
f 25/70/4 27/76/4 21/58/4
f 13/35/1 21/59/1 23/64/1
f 15/41/7 23/65/7 28/79/7
f 16/43/3 14/37/3 25/71/3
f 22/61/3 24/68/3 28/80/3
f 16/43/3 26/74/3 28/80/3
f 22/61/3 27/77/3 25/71/3
f 14/38/4 30/84/4 33/91/4
f 22/62/6 33/92/6 36/97/6
f 29/82/4 38/101/4 39/104/4
f 31/87/11 32/90/11 29/81/11
f 35/95/12 36/97/12 33/92/12
f 36/98/13 35/96/13 32/89/13
f 30/84/14 29/82/14 34/93/14
f 16/44/5 31/88/5 30/85/5
f 38/102/3 37/100/3 40/106/3
f 35/96/7 40/107/7 37/99/7
f 34/94/6 39/105/6 40/108/6
f 32/90/5 37/100/5 38/102/5
